<svg viewBox="0 0 39 39" fill="none" xmlns="http://www.w3.org/2000/svg">
    <style>

.fill-blue-50 {
  fill: #eff6ff;
}

.stroke-blue-600 {
  stroke: #2563eb;
}

.stroke-blue-950 {
  stroke: #172554;
}

.stroke-2 {
  stroke-width: 2;
}

.stroke-\[4\] {
  stroke-width: 4;
}

.transition-colors {
  transition-property: color, background-color, border-color, fill, stroke, -webkit-text-decoration-color;
  transition-property: color, background-color, border-color, text-decoration-color, fill, stroke;
  transition-property: color, background-color, border-color, text-decoration-color, fill, stroke, -webkit-text-decoration-color;
  transition-timing-function: cubic-bezier(0.4, 0, 0.2, 1);
  transition-duration: 150ms;
}

@media (prefers-color-scheme: dark) {
  .dark\:bg-stone-800 {
    --tw-bg-opacity: 1;
    background-color: rgb(41 37 36 / var(--tw-bg-opacity));
  }

  .dark\:stroke-white {
    stroke: #fff;
  }
}

    </style>
    <path class="fill-blue-50 stroke-blue-600 stroke-[4] transition-colors" d="M36.1401 19.0701C36.1401 28.4975 28.4976 36.14 19.07 36.14C9.64251 36.14 2 28.4975 2 19.0701C2 9.64251 9.64251 2 19.07 2C-1.28576 22.3557 15.9976 39.2339 36.1401 19.0701Z" stroke-opacity="0.56"></path>
    <path class="fill-blue-50 stroke-blue-600 stroke-[4] transition-colors" d="M36.1401 19.0701C36.1401 28.4975 28.4976 36.14 19.07 36.14C9.64251 36.14 2 28.4975 2 19.0701C2 9.64251 9.64251 2 19.07 2C-1.28576 22.3557 15.9976 39.2339 36.1401 19.0701Z" stroke-opacity="0.56"></path>
    <path class="stroke-blue-950 stroke-2 transition-colors dark:stroke-white" d="M19.0698 27.9464C23.9721 27.9464 27.9462 23.9723 27.9462 19.0699C27.9462 14.1676 23.9721 10.1935 19.0698 10.1935C14.1675 10.1935 10.1934 14.1676 10.1934 19.0699C10.1934 23.9723 14.1675 27.9464 19.0698 27.9464Z"></path>
  </svg>
